<svg width="91" height="92" viewBox="0 0 91 92" fill="none" xmlns="http://www.w3.org/2000/svg">
<path d="M53.6004 91.3903L46.3736 79.1649H43.3027V72.7422H50.0354L53.1547 78.0121L66.223 52.0403L75.5519 72.7422H90.7028V79.1649H71.4057L65.9033 66.9588L53.6004 91.3903Z" fill="#FF647D"/>
<path d="M38.5284 40.8321V0.959043H32.1057V4.91147C29.7794 2.82834 26.9814 1.34213 23.9529 0.580934C20.9244 -0.180261 17.7563 -0.193609 14.7215 0.542041C11.6867 1.27769 8.87629 2.74027 6.53251 4.80373C4.18874 6.86719 2.38188 9.46963 1.26767 12.3868C0.153458 15.3039 -0.234689 18.4482 0.13668 21.5488C0.508049 24.6493 1.6278 27.613 3.39942 30.1845C5.17103 32.7559 7.54138 34.8581 10.3062 36.3096C13.071 37.7612 16.1473 38.5187 19.27 38.5168C24.0099 38.5205 28.583 36.7672 32.1057 33.5957V40.8321H19.2796C14.1761 40.8295 9.28005 42.8518 5.66587 46.455C2.0517 50.0583 0.014681 54.9483 0.00185228 60.0518V71.6766C0.00185228 76.7817 2.02984 81.6776 5.63967 85.2875C9.24951 88.8973 14.1455 90.9253 19.2506 90.9253C24.3557 90.9253 29.2516 88.8973 32.8615 85.2875C36.4713 81.6776 38.4993 76.7817 38.4993 71.6766V40.8321H38.5284ZM32.1057 71.6766C32.1057 75.0782 30.7544 78.3406 28.349 80.7459C25.9437 83.1513 22.6813 84.5026 19.2796 84.5026C15.878 84.5026 12.6156 83.1513 10.2103 80.7459C7.80492 78.3406 6.45361 75.0782 6.45361 71.6766V60.0518C6.46641 56.6567 7.82275 53.4048 10.2262 51.0068C12.6296 48.6089 15.8846 47.2599 19.2796 47.2548H32.1057V71.6766ZM19.27 32.0941C16.729 32.096 14.2445 31.3443 12.1308 29.934C10.0171 28.5237 8.36917 26.5182 7.39545 24.1712C6.42172 21.8241 6.16596 19.2411 6.66051 16.7487C7.15505 14.2563 8.3777 11.9665 10.1738 10.1691C11.9698 8.37165 14.2587 7.14729 16.7507 6.65086C19.2427 6.15443 21.826 6.40825 24.1737 7.3802C26.5215 8.35215 28.5283 9.99857 29.9402 12.1112C31.352 14.2238 32.1057 16.7077 32.1057 19.2487C32.1005 22.6523 30.7469 25.9151 28.3411 28.3227C25.9353 30.7303 22.6735 32.0864 19.27 32.0941Z" fill="#9164CC"/>
<path d="M67.1147 47.2548C72.3182 47.2505 77.3746 45.5279 81.4984 42.3545C85.6223 39.1811 88.5827 34.7347 89.9198 29.7059C91.2569 24.6771 90.8958 19.3475 88.8926 14.545C86.8894 9.74256 83.3563 5.73607 78.8421 3.14795C74.3279 0.559836 69.0853 -0.46502 63.9288 0.232594C58.7722 0.930208 53.9904 3.31124 50.3262 7.0058C46.662 10.7004 44.3204 15.5016 43.6653 20.6637C43.0102 25.8258 44.0782 31.0598 46.7035 35.5525L52.2543 32.3073C50.3394 29.0325 49.5598 25.2169 50.0367 21.4534C50.5137 17.69 52.2204 14.1895 54.8917 11.4959C57.563 8.80238 61.0492 7.06664 64.8086 6.55847C68.5679 6.05031 72.3899 6.79817 75.6804 8.68584C78.971 10.5735 81.5458 13.4953 83.0048 16.997C84.4639 20.4988 84.7253 24.3844 83.7485 28.05C82.7718 31.7157 80.6115 34.956 77.6035 37.2675C74.5955 39.579 70.9082 40.8321 67.1147 40.8321H38.5273V47.2548H67.1147Z" fill="#A5C5ED"/>
</svg>
